<?xml version="1.0" encoding="iso-8859-1"?>
<!-- Generator: Adobe Illustrator 16.0.0, SVG Export Plug-In . SVG Version: 6.00 Build 0)  -->
<!DOCTYPE svg PUBLIC "-//W3C//DTD SVG 1.1//EN" "http://www.w3.org/Graphics/SVG/1.1/DTD/svg11.dtd">
<svg version="1.1" id="Capa_1" xmlns="http://www.w3.org/2000/svg" xmlns:xlink="http://www.w3.org/1999/xlink" x="0px" y="0px"
	 width="461.404px" height="461.404px" viewBox="0 0 461.404 461.404" style="enable-background:new 0 0 461.404 461.404;"
	 xml:space="preserve">
<g>
	<path d="M368.154,195.827h-4.202l8.199-59.771c4.343-31.699-3.909-63.19-23.258-88.674c-19.339-25.484-47.442-41.916-79.137-46.26
		c-40.15-5.505-80.041,9.477-106.679,40.092c-8.185,9.402-7.19,23.651,2.202,31.837c9.412,8.175,23.661,7.196,31.848-2.205
		c16.604-19.092,41.466-28.438,66.506-25.013c40.762,5.592,69.402,43.316,63.809,84.094l-9.04,65.894H93.245
		c-9.59,0-17.36,7.771-17.36,17.357v230.87c0,9.581,7.77,17.356,17.36,17.356H368.16c9.589,0,17.359-7.77,17.359-17.356V213.183
		C385.514,203.597,377.744,195.827,368.154,195.827z M251.131,368.801V433h-42.386v-65.945c-3.844-4.805-6.153-10.876-6.153-17.51
		c0-15.517,12.585-28.099,28.108-28.099c15.518,0,28.104,12.586,28.104,28.099C258.803,357.005,255.87,363.767,251.131,368.801z"/>
</g>
<g>
</g>
<g>
</g>
<g>
</g>
<g>
</g>
<g>
</g>
<g>
</g>
<g>
</g>
<g>
</g>
<g>
</g>
<g>
</g>
<g>
</g>
<g>
</g>
<g>
</g>
<g>
</g>
<g>
</g>
</svg>
